:SAMPLES-PER-SECOND 30
:FULLY-SPECIFIED
:DEGREES
125
root  -47.5138 39.5217 -5.24273 -0.470306 -80.917 -6.06122
RightUpLeg  -16.6523 -13.6898 -1.05406
RightLeg  16.2888 -3.27354 2.90266
RightFoot  7.33361 0.786163 -4.46942
RightToes  1.74622e-010 0 -3.6325e-017
Spine  1.71118 -3.05568 8.34174
Spine1  10.1884 -2.82528 0.742527
HEad  -9.02136 0.0186841 -3.67562
LeftShoulder1  9.04413 -12.3551 -49.7828
LeftArm  -2.15347 18.2831 -26.4462
LeftForeArm  24.5217 -24.1242 -3.90551
LeftHand  -0.244104 0.0205437 5.32207
RightShoulder  5.28336 8.22825 38.9481
RightArm  4.15727 -15.3947 32.0464
RightForeArm  -4.33035 19.7642 5.665
RightHand  -0.897604 1.70218 -14.8025
LeftUpLeg  -1.14905 6.56475 5.39565
LeftLeg  55.4273 4.89257 8.0749
LeftFoot  3.42087 0.682303 -5.34664
LeftToes  1.00041e-010 1.90862e-010 2.54823e-011
126
root  -48.4116 39.833 -5.37887 -1.53778 -80.8258 -4.54376
RightUpLeg  -14.9283 -12.9505 -1.653
RightLeg  15.2211 -4.17245 3.61759
RightFoot  6.53158 0.745324 -4.45057
RightToes  1.74622e-010 0 -3.6325e-017
Spine  2.33349 -2.79692 8.80793
Spine1  9.49049 -2.30297 -0.238334
HEad  -10.0257 -0.88413 -2.78874
LeftShoulder1  9.01409 -12.3165 -49.7382
LeftArm  0.0540856 18.1769 -26.4966
LeftForeArm  25.0279 -21.8964 -3.68885
LeftHand  -0.244104 0.0205437 5.32207
RightShoulder  5.48798 8.58979 39.2758
RightArm  4.41883 -14.0699 32.3265
RightForeArm  -7.76861 23.3729 5.3934
RightHand  -1.0774 2.38692 -16.2082
LeftUpLeg  -6.23596 7.11663 4.91978
LeftLeg  60.0546 5.44023 10.6419
LeftFoot  1.36572 0.391434 -3.59186
LeftToes  1.00041e-010 1.90862e-010 2.54823e-011
127
root  -49.2602 40.1161 -5.52057 -4.7561 -81.6887 -0.74826
RightUpLeg  -13.4112 -11.8028 -2.15386
RightLeg  13.9498 -4.55876 4.07347
RightFoot  5.53911 0.71114 -4.53158
RightToes  1.74622e-010 0 -3.6325e-017
Spine  2.81096 -2.11392 8.92225
Spine1  8.74715 -1.33156 -1.41054
HEad  -10.6777 -1.64373 -2.17714
LeftShoulder1  8.92317 -12.2822 -49.345
LeftArm  -0.406419 19.0488 -26.864
LeftForeArm  26.5813 -21.2179 -3.71522
LeftHand  -0.244104 0.0205437 5.32207
RightShoulder  5.80565 9.14885 39.76
RightArm  3.39765 -12.8613 32.2442
RightForeArm  -8.33658 26.0556 6.00589
RightHand  -1.19754 2.77468 -17.1493
LeftUpLeg  -10.4448 9.06381 4.3174
LeftLeg  61.3724 5.44901 11.2855
LeftFoot  -0.573705 0.279855 -2.94617
LeftToes  1.00041e-010 1.90862e-010 2.54823e-011
128
root  -50.0237 40.344 -5.64385 -8.34729 -82.3123 3.36703
RightUpLeg  -12.1206 -10.6583 -2.70301
RightLeg  12.8345 -5.04015 4.55067
RightFoot  4.81066 0.683049 -4.5761
RightToes  1.74622e-010 0 -3.6325e-017
Spine  3.33769 -1.59332 8.92975
Spine1  8.14066 -0.584554 -2.30353
HEad  -11.4437 -2.22116 -1.79901
LeftShoulder1  8.92021 -12.4152 -48.9166
LeftArm  -1.73576 20.6967 -27.2008
LeftForeArm  25.8548 -21.926 -3.65567
LeftHand  -0.244104 0.0205437 5.32207
RightShoulder  5.99953 9.48505 40.0501
RightArm  3.36679 -11.4293 32.4109
RightForeArm  -7.99136 27.9622 6.45408
RightHand  -1.21654 2.74756 -17.4656
LeftUpLeg  -13.9514 10.7995 3.70649
LeftLeg  59.9211 5.56169 10.8345
LeftFoot  -0.952863 0.269888 -2.90483
LeftToes  1.00041e-010 1.90862e-010 2.54823e-011
129
root  -50.7104 40.5445 -5.7304 -11.3326 -82.441 6.86618
RightUpLeg  -11.0005 -10.036 -3.21866
RightLeg  11.7987 -5.34603 4.98839
RightFoot  4.39683 0.666075 -4.59612
RightToes  1.74622e-010 0 -3.6325e-017
Spine  3.68835 -1.31468 9.06316
Spine1  7.93463 -0.134988 -3.12334
HEad  -12.5879 -2.67661 -1.701
LeftShoulder1  9.03558 -12.6128 -48.943
LeftArm  -2.70915 21.8716 -27.0077
LeftForeArm  23.6863 -22.714 -3.72574
LeftHand  -0.244104 0.0205437 5.32207
RightShoulder  6.04226 9.55451 40.1266
RightArm  3.78271 -9.94489 32.7403
RightForeArm  -6.94947 29.5086 6.78364
RightHand  -1.14662 2.36072 -17.2729
LeftUpLeg  -16.6481 11.7919 3.07411
LeftLeg  55.9495 5.95101 9.89213
LeftFoot  -1.38499 0.301902 -3.37912
LeftToes  1.00041e-010 1.90862e-010 2.54823e-011
130
root  -51.3469 40.7144 -5.7939 -14.4258 -82.5214 10.4737
RightUpLeg  -10.047 -9.75118 -3.55133
RightLeg  10.9498 -5.42042 5.08839
RightFoot  3.8528 0.654669 -4.70573
RightToes  1.74622e-010 0 -3.6325e-017
Spine  3.87668 -1.06242 9.19732
Spine1  7.92956 0.284981 -3.99854
HEad  -13.722 -3.02753 -1.69901
LeftShoulder1  9.09363 -12.691 -49.0205
LeftArm  -3.15244 22.11 -26.7547
LeftForeArm  22.3382 -22.5646 -3.79096
LeftHand  -0.244104 0.0205437 5.32207
RightShoulder  6.11722 9.64588 40.361
RightArm  4.28992 -8.9448 32.7878
RightForeArm  -5.879 30.8883 7.07954
RightHand  -1.05513 1.92044 -16.8504
LeftUpLeg  -18.1228 12.372 2.54918
LeftLeg  49.4302 5.90027 7.80233
LeftFoot  -2.49455 0.35792 -4.43802
LeftToes  1.00041e-010 1.90862e-010 2.54823e-011
131
root  -51.9588 40.8504 -5.8409 -18.2842 -82.7769 14.6298
RightUpLeg  -9.09176 -9.52887 -3.75393
RightLeg  10.4174 -5.30876 4.91331
RightFoot  3.15803 0.647566 -4.91456
RightToes  1.74622e-010 0 -3.6325e-017
Spine  3.98053 -0.755037 9.13445
Spine1  8.13202 0.740492 -4.69889
HEad  -14.592 -3.24806 -1.58677
LeftShoulder1  9.04824 -12.6803 -48.8073
LeftArm  -3.62816 22.0238 -26.8684
LeftForeArm  22.5512 -22.1331 -3.76913
LeftHand  -0.244104 0.0205437 5.32207
RightShoulder  6.28981 9.87362 40.8312
RightArm  5.0248 -8.47212 32.5665
RightForeArm  -5.4732 31.7541 7.284
RightHand  -1.01589 1.74628 -16.6189
LeftUpLeg  -17.9575 12.4752 2.25265
LeftLeg  40.8856 4.83549 4.86907
LeftFoot  -3.30746 0.411843 -5.57374
LeftToes  1.00041e-010 1.90862e-010 2.54823e-011
